<svg width="32" height="32" viewBox="0 0 32 32" fill="none" xmlns="http://www.w3.org/2000/svg">
  <!-- Background circle -->
  <circle cx="16" cy="16" r="15" fill="#2563eb"/>
  
  <!-- Scissors icon for salon theme -->
  <path d="M8 12c1.1 0 2-.9 2-2s-.9-2-2-2-2 .9-2 2 .9 2 2 2z" fill="white"/>
  <path d="M8 22c1.1 0 2-.9 2-2s-.9-2-2-2-2 .9-2 2 .9 2 2 2z" fill="white"/>
  <path d="M24 12c1.1 0 2-.9 2-2s-.9-2-2-2-2 .9-2 2 .9 2 2 2z" fill="white"/>
  <path d="M24 22c1.1 0 2-.9 2-2s-.9-2-2-2-2 .9-2 2 .9 2 2 2z" fill="white"/>
  
  <!-- Connecting lines -->
  <path d="M10 10L22 22" stroke="white" stroke-width="2" stroke-linecap="round"/>
  <path d="M10 22L22 10" stroke="white" stroke-width="2" stroke-linecap="round"/>
  
  <!-- Center element -->
  <circle cx="16" cy="16" r="2" fill="white"/>
</svg>